<svg xmlns="http://www.w3.org/2000/svg" width="805" height="600"><rect width="805" height="600" x="0" y="0" fill="#FFFFFF" id="background"/><g id="viz"><g transform="translate(0,0)"><g transform="translate(10,20)"><g><path fill="#9013fe" d="M0,274.75C2.205056179775281,274.75,2.205056179775281,274.75,4.410112359550562,274.75C6.615168539325842,274.75,6.615168539325842,276.5,8.820224719101123,276.5C11.025280898876403,276.5,11.025280898876403,276.5,13.230337078651685,276.5C15.435393258426966,276.5,15.435393258426966,276.5,17.640449438202246,276.5C19.84550561797753,276.5,19.84550561797753,276.5,22.05056179775281,276.5C24.25561797752809,276.5,24.25561797752809,276.5,26.46067415730337,276.5C28.66573033707865,276.5,28.66573033707865,274.75,30.870786516853933,274.75C33.07584269662921,274.75,33.07584269662921,274.75,35.28089887640449,274.75C37.485955056179776,274.75,37.485955056179776,278.25,39.69101123595505,278.25C41.896067415730336,278.25,41.896067415730336,276.5,44.10112359550562,276.5C46.306179775280896,276.5,46.306179775280896,274.75,48.51123595505618,274.75C50.71629213483146,274.75,50.71629213483146,276.5,52.92134831460674,276.5C55.126404494382015,276.5,55.126404494382015,276.5,57.3314606741573,276.5C59.53651685393258,276.5,59.53651685393258,274.75,61.741573033707866,274.75C63.94662921348314,274.75,63.94662921348314,273,66.15168539325842,273C68.3567415730337,273,68.3567415730337,273,70.56179775280899,273C72.76685393258427,273,72.76685393258427,274.75,74.97191011235955,274.75C77.17696629213484,274.75,77.17696629213484,276.5,79.3820224719101,276.5C81.58707865168539,276.5,81.58707865168539,276.5,83.79213483146067,276.5C85.99719101123596,276.5,85.99719101123596,274.75,88.20224719101124,274.75C90.40730337078651,274.75,90.40730337078651,276.5,92.61235955056179,276.5C94.81741573033707,276.5,94.81741573033707,274.75,97.02247191011236,274.75C99.22752808988764,274.75,99.22752808988764,274.75,101.43258426966293,274.75C103.63764044943821,274.75,103.63764044943821,276.5,105.84269662921348,276.5C108.04775280898878,276.5,108.04775280898878,276.5,110.25280898876406,276.5C112.45786516853933,276.5,112.45786516853933,278.25,114.6629213483146,278.25C116.86797752808988,278.25,116.86797752808988,276.5,119.07303370786518,276.5C121.27808988764045,276.5,121.27808988764045,276.5,123.48314606741573,276.5C125.68820224719101,276.5,125.68820224719101,276.5,127.8932584269663,276.5C130.09831460674155,276.5,130.09831460674155,276.5,132.30337078651684,276.5C134.50842696629212,276.5,134.50842696629212,276.5,136.71348314606743,276.5C138.9185393258427,276.5,138.9185393258427,276.5,141.12359550561797,276.5C143.32865168539325,276.5,143.32865168539325,278.25,145.53370786516854,278.25C147.73876404494382,278.25,147.73876404494382,276.5,149.9438202247191,276.5C152.1488764044944,276.5,152.1488764044944,276.5,154.35393258426967,276.5C156.55898876404495,276.5,156.55898876404495,274.75,158.7640449438202,274.75C160.96910112359552,274.75,160.96910112359552,276.5,163.1741573033708,276.5C165.3792134831461,276.5,165.3792134831461,276.5,167.58426966292134,276.5C169.78932584269663,276.5,169.78932584269663,276.5,171.9943820224719,276.5C174.1994382022472,276.5,174.1994382022472,276.5,176.40449438202248,276.5C178.60955056179776,276.5,178.60955056179776,276.5,180.81460674157304,276.5C183.0196629213483,276.5,183.0196629213483,278.25,185.22471910112358,278.25C187.42977528089887,278.25,187.42977528089887,276.5,189.63483146067415,276.5C191.83988764044943,276.5,191.83988764044943,276.5,194.04494382022472,276.5C196.25,276.5,196.25,276.5,198.45505617977528,276.5C200.66011235955057,276.5,200.66011235955057,278.25,202.86516853932585,278.25C205.07022471910113,278.25,205.07022471910113,276.5,207.2752808988764,276.5C209.48033707865167,276.5,209.48033707865167,276.5,211.68539325842696,276.5C213.89044943820224,276.5,213.89044943820224,278.25,216.09550561797752,278.25C218.30056179775283,278.25,218.30056179775283,276.5,220.50561797752812,276.5C222.71067415730337,276.5,222.71067415730337,276.5,224.91573033707863,276.5C227.1207865168539,276.5,227.1207865168539,276.5,229.3258426966292,276.5C231.53089887640448,276.5,231.53089887640448,276.5,233.7359550561798,276.5C235.94101123595507,276.5,235.94101123595507,276.5,238.14606741573036,276.5C240.3511235955056,276.5,240.3511235955056,276.5,242.55617977528087,276.5C244.76123595505618,276.5,244.76123595505618,276.5,246.96629213483146,276.5C249.17134831460675,276.5,249.17134831460675,276.5,251.37640449438203,276.5C253.5814606741573,276.5,253.5814606741573,276.5,255.7865168539326,276.5C257.9915730337078,276.5,257.9915730337078,276.5,260.1966292134831,276.5C262.4016853932584,276.5,262.4016853932584,274.75,264.6067415730337,274.75C266.81179775280896,274.75,266.81179775280896,274.75,269.0168539325843,274.75C271.2219101123596,274.75,271.2219101123596,274.75,273.42696629213486,274.75C275.6320224719101,274.75,275.6320224719101,276.5,277.8370786516854,276.5C280.04213483146066,276.5,280.04213483146066,276.5,282.24719101123594,276.5C284.4522471910112,276.5,284.4522471910112,274.75,286.6573033707865,274.75C288.8623595505618,274.75,288.8623595505618,274.75,291.0674157303371,274.75C293.27247191011236,274.75,293.27247191011236,276.5,295.47752808988764,276.5C297.6825842696629,276.5,297.6825842696629,273,299.8876404494382,273C302.0926966292135,273,302.0926966292135,274.75,304.2977528089888,274.75C306.50280898876406,274.75,306.50280898876406,274.75,308.70786516853934,274.75C310.9129213483146,274.75,310.9129213483146,280,313.11797752808985,280C315.32303370786514,280,315.32303370786514,281.75,317.5280898876404,281.75C319.7331460674157,281.75,319.7331460674157,273,321.938202247191,273C324.1432584269663,273,324.1432584269663,236.25,326.3483146067416,236.25C328.5533707865169,236.25,328.5533707865169,280,330.7584269662921,280C332.9634831460674,280,332.9634831460674,257.25,335.1685393258427,257.25C337.37359550561797,257.25,337.37359550561797,253.75,339.57865168539325,253.75C341.78370786516854,253.75,341.78370786516854,271.25,343.9887640449438,271.25C346.1938202247191,271.25,346.1938202247191,178.5,348.3988764044944,178.5C350.60393258426967,178.5,350.60393258426967,285.25,352.80898876404495,285.25C355.01404494382024,285.25,355.01404494382024,281.75,357.2191011235955,281.75C359.4241573033708,281.75,359.4241573033708,260.75,361.6292134831461,260.75C363.8342696629213,260.75,363.8342696629213,241.5,366.0393258426966,241.5C368.2443820224719,241.5,368.2443820224719,278.25,370.44943820224717,278.25C372.65449438202245,278.25,372.65449438202245,276.5,374.85955056179773,276.5C377.064606741573,276.5,377.064606741573,259,379.2696629213483,259C381.4747191011236,259,381.4747191011236,269.5,383.67977528089887,269.5C385.88483146067415,269.5,385.88483146067415,274.75,388.08988764044943,274.75C390.2949438202247,274.75,390.2949438202247,274.75,392.5,274.75C394.7050561797753,274.75,394.7050561797753,262.5,396.91011235955057,262.5C399.11516853932585,262.5,399.11516853932585,262.5,401.32022471910113,262.5C403.5252808988764,262.5,403.5252808988764,267.75,405.7303370786517,267.75C407.935393258427,267.75,407.935393258427,267.75,410.14044943820227,267.75C412.34550561797755,267.75,412.34550561797755,273,414.5505617977528,273C416.75561797752806,273,416.75561797752806,269.5,418.96067415730334,269.5C421.1657303370786,269.5,421.1657303370786,267.75,423.3707865168539,267.75C425.5758426966292,267.75,425.5758426966292,267.75,427.7808988764045,267.75C429.98595505617976,267.75,429.98595505617976,269.5,432.19101123595505,269.5C434.39606741573033,269.5,434.39606741573033,266,436.6011235955056,266C438.80617977528095,266,438.80617977528095,269.5,441.01123595505624,269.5C443.2162921348315,269.5,443.2162921348315,260.75,445.4213483146068,260.75C447.62640449438203,260.75,447.62640449438203,260.75,449.83146067415726,260.75C452.03651685393254,260.75,452.03651685393254,257.25,454.2415730337078,257.25C456.4466292134831,257.25,456.4466292134831,259,458.6516853932584,259C460.8567415730337,259,460.8567415730337,243.24999999999997,463.061797752809,243.24999999999997C465.2668539325843,243.24999999999997,465.2668539325843,229.25000000000003,467.4719101123596,229.25000000000003C469.67696629213486,229.25000000000003,469.67696629213486,236.25,471.88202247191015,236.25C474.08707865168543,236.25,474.08707865168543,246.75000000000003,476.2921348314607,246.75000000000003C478.497191011236,246.75000000000003,478.497191011236,238.00000000000003,480.7022471910113,238.00000000000003C482.9073033707865,238.00000000000003,482.9073033707865,236.25,485.11235955056173,236.25C487.3174157303371,236.25,487.3174157303371,245,489.52247191011236,245C491.72752808988764,245,491.72752808988764,246.75000000000003,493.9325842696629,246.75000000000003C496.1376404494382,246.75000000000003,496.1376404494382,245,498.3426966292135,245C500.5477528089888,245,500.5477528089888,245,502.75280898876406,245C504.95786516853934,245,504.95786516853934,246.75000000000003,507.1629213483146,246.75000000000003C509.3679775280899,246.75000000000003,509.3679775280899,245,511.5730337078652,245C513.7780898876405,245,513.7780898876405,241.5,515.9831460674158,241.5C518.1882022471909,241.5,518.1882022471909,251.99999999999997,520.3932584269662,251.99999999999997C522.5983146067415,251.99999999999997,522.5983146067415,246.75000000000003,524.8033707865168,246.75000000000003C527.0084269662921,246.75000000000003,527.0084269662921,253.75,529.2134831460673,253.75C531.4185393258426,253.75,531.4185393258426,243.24999999999997,533.623595505618,243.24999999999997C535.8286516853933,243.24999999999997,535.8286516853933,259,538.0337078651686,259C540.2387640449439,259,540.2387640449439,253.75,542.4438202247192,253.75C544.6488764044944,253.75,544.6488764044944,253.75,546.8539325842697,253.75C549.058988764045,253.75,549.058988764045,251.99999999999997,551.2640449438203,251.99999999999997C553.4691011235955,251.99999999999997,553.4691011235955,255.50000000000003,555.6741573033707,255.50000000000003C557.879213483146,255.50000000000003,557.879213483146,260.75,560.0842696629213,260.75C562.2893258426966,260.75,562.2893258426966,255.50000000000003,564.4943820224719,255.50000000000003C566.6994382022472,255.50000000000003,566.6994382022472,253.75,568.9044943820224,253.75C571.1095505617977,253.75,571.1095505617977,259,573.314606741573,259C575.5196629213483,259,575.5196629213483,259,577.7247191011236,259C579.9297752808989,259,579.9297752808989,262.5,582.1348314606741,262.5C584.3398876404494,262.5,584.3398876404494,266,586.5449438202247,266C588.75,266,588.75,266,590.9550561797753,266C593.1601123595506,266,593.1601123595506,260.75,595.3651685393259,260.75C597.5702247191011,260.75,597.5702247191011,262.5,599.7752808988764,262.5C601.9803370786517,262.5,601.9803370786517,264.25,604.185393258427,264.25C606.3904494382023,264.25,606.3904494382023,266,608.5955056179776,266C610.8005617977528,266,610.8005617977528,267.75,613.0056179775281,267.75C615.2106741573034,267.75,615.2106741573034,267.75,617.4157303370787,267.75C619.620786516854,267.75,619.620786516854,260.75,621.8258426966293,260.75C624.0308988764045,260.75,624.0308988764045,264.25,626.2359550561797,264.25C628.441011235955,264.25,628.441011235955,262.5,630.6460674157303,262.5C632.8511235955056,262.5,632.8511235955056,262.5,635.0561797752808,262.5C637.2612359550561,262.5,637.2612359550561,260.75,639.4662921348314,260.75C641.6713483146067,260.75,641.6713483146067,264.25,643.876404494382,264.25C646.0814606741574,264.25,646.0814606741574,259,648.2865168539327,259C650.4915730337079,259,650.4915730337079,259,652.6966292134832,259C654.9016853932585,259,654.9016853932585,259,657.1067415730338,259C659.3117977528091,259,659.3117977528091,257.25,661.5168539325842,257.25C663.7219101123595,257.25,663.7219101123595,259,665.9269662921348,259C668.1320224719101,259,668.1320224719101,257.25,670.3370786516854,257.25C672.5421348314607,257.25,672.5421348314607,260.75,674.7471910112359,260.75C676.9522471910112,260.75,676.9522471910112,255.50000000000003,679.1573033707865,255.50000000000003C681.3623595505618,255.50000000000003,681.3623595505618,257.25,683.5674157303371,257.25C685.7724719101124,257.25,685.7724719101124,255.50000000000003,687.9775280898876,255.50000000000003C690.1825842696629,255.50000000000003,690.1825842696629,260.75,692.3876404494382,260.75C694.5926966292135,260.75,694.5926966292135,259,696.7977528089888,259C699.0028089887641,259,699.0028089887641,260.75,701.2078651685393,260.75C703.4129213483146,260.75,703.4129213483146,260.75,705.6179775280899,260.75C707.8230337078652,260.75,707.8230337078652,259,710.0280898876405,259C712.2331460674158,259,712.2331460674158,262.5,714.438202247191,262.5C716.6432584269663,262.5,716.6432584269663,260.75,718.8483146067416,260.75C721.0533707865169,260.75,721.0533707865169,260.75,723.2584269662922,260.75C725.4634831460675,260.75,725.4634831460675,257.25,727.6685393258427,257.25C729.8735955056179,257.25,729.8735955056179,257.25,732.0786516853932,257.25C734.2837078651685,257.25,734.2837078651685,253.75,736.4887640449438,253.75C738.693820224719,253.75,738.693820224719,259,740.8988764044943,259C743.1039325842696,259,743.1039325842696,260.75,745.3089887640449,260.75C747.5140449438202,260.75,747.5140449438202,257.25,749.7191011235955,257.25C751.9241573033707,257.25,751.9241573033707,260.75,754.129213483146,260.75C756.3342696629213,260.75,756.3342696629213,259,758.5393258426966,259C760.7443820224719,259,760.7443820224719,260.75,762.9494382022473,260.75C765.1544943820224,260.75,765.1544943820224,260.75,767.3595505617977,260.75C769.564606741573,260.75,769.564606741573,257.25,771.7696629213483,257.25C773.9747191011236,257.25,773.9747191011236,257.25,776.1797752808989,257.25C778.3848314606741,257.25,778.3848314606741,259,780.5898876404494,259C782.7949438202247,259,782.7949438202247,259,785,259L785,329C782.7949438202247,329,782.7949438202247,329,780.5898876404494,329C778.3848314606741,329,778.3848314606741,330.75,776.1797752808989,330.75C773.9747191011236,330.75,773.9747191011236,330.75,771.7696629213483,330.75C769.564606741573,330.75,769.564606741573,330.75,767.3595505617977,330.75C765.1544943820224,330.75,765.1544943820224,334.25,762.9494382022473,334.25C760.7443820224719,334.25,760.7443820224719,332.5,758.5393258426966,332.5C756.3342696629213,332.5,756.3342696629213,330.75,754.129213483146,330.75C751.9241573033707,330.75,751.9241573033707,334.25,749.7191011235955,334.25C747.5140449438202,334.25,747.5140449438202,334.25,745.3089887640449,334.25C743.1039325842696,334.25,743.1039325842696,332.5,740.8988764044943,332.5C738.693820224719,332.5,738.693820224719,337.75,736.4887640449438,337.75C734.2837078651685,337.75,734.2837078651685,334.25,732.0786516853932,334.25C729.8735955056179,334.25,729.8735955056179,334.25,727.6685393258427,334.25C725.4634831460675,334.25,725.4634831460675,330.75,723.2584269662922,330.75C721.0533707865169,330.75,721.0533707865169,334.25,718.8483146067416,334.25C716.6432584269663,334.25,716.6432584269663,332.5,714.438202247191,332.5C712.2331460674158,332.5,712.2331460674158,332.5,710.0280898876405,332.5C707.8230337078652,332.5,707.8230337078652,334.25,705.6179775280899,334.25C703.4129213483146,334.25,703.4129213483146,334.25,701.2078651685393,334.25C699.0028089887641,334.25,699.0028089887641,336,696.7977528089888,336C694.5926966292135,336,694.5926966292135,337.75,692.3876404494382,337.75C690.1825842696629,337.75,690.1825842696629,339.5,687.9775280898876,339.5C685.7724719101124,339.5,685.7724719101124,341.25,683.5674157303371,341.25C681.3623595505618,341.25,681.3623595505618,343,679.1573033707865,343C676.9522471910112,343,676.9522471910112,337.75,674.7471910112359,337.75C672.5421348314607,337.75,672.5421348314607,341.25,670.3370786516854,341.25C668.1320224719101,341.25,668.1320224719101,339.5,665.9269662921348,339.5C663.7219101123595,339.5,663.7219101123595,341.25,661.5168539325842,341.25C659.3117977528091,341.25,659.3117977528091,343,657.1067415730338,343C654.9016853932585,343,654.9016853932585,343,652.6966292134832,343C650.4915730337079,343,650.4915730337079,339.5,648.2865168539327,339.5C646.0814606741574,339.5,646.0814606741574,330.75,643.876404494382,330.75C641.6713483146067,330.75,641.6713483146067,337.75,639.4662921348314,337.75C637.2612359550561,337.75,637.2612359550561,336,635.0561797752808,336C632.8511235955056,336,632.8511235955056,332.5,630.6460674157303,332.5C628.441011235955,332.5,628.441011235955,330.75,626.2359550561797,330.75C624.0308988764045,330.75,624.0308988764045,330.75,621.8258426966293,330.75C619.620786516854,330.75,619.620786516854,330.75,617.4157303370787,330.75C615.2106741573034,330.75,615.2106741573034,330.75,613.0056179775281,330.75C610.8005617977528,330.75,610.8005617977528,329,608.5955056179776,329C606.3904494382023,329,606.3904494382023,330.75,604.185393258427,330.75C601.9803370786517,330.75,601.9803370786517,329,599.7752808988764,329C597.5702247191011,329,597.5702247191011,334.25,595.3651685393259,334.25C593.1601123595506,334.25,593.1601123595506,336,590.9550561797753,336C588.75,336,588.75,325.5,586.5449438202247,325.5C584.3398876404494,325.5,584.3398876404494,336,582.1348314606741,336C579.9297752808989,336,579.9297752808989,329,577.7247191011236,329C575.5196629213483,329,575.5196629213483,339.5,573.314606741573,339.5C571.1095505617977,339.5,571.1095505617977,337.75,568.9044943820224,337.75C566.6994382022472,337.75,566.6994382022472,339.5,564.4943820224719,339.5C562.2893258426966,339.5,562.2893258426966,348.25,560.0842696629213,348.25C557.879213483146,348.25,557.879213483146,346.5,555.6741573033707,346.5C553.4691011235955,346.5,553.4691011235955,357,551.2640449438203,357C549.058988764045,357,549.058988764045,337.75,546.8539325842697,337.75C544.6488764044944,337.75,544.6488764044944,348.25,542.4438202247192,348.25C540.2387640449439,348.25,540.2387640449439,350,538.0337078651686,350C535.8286516853933,350,535.8286516853933,358.75,533.623595505618,358.75C531.4185393258426,358.75,531.4185393258426,348.25,529.2134831460673,348.25C527.0084269662921,348.25,527.0084269662921,351.75,524.8033707865168,351.75C522.5983146067415,351.75,522.5983146067415,343,520.3932584269662,343C518.1882022471909,343,518.1882022471909,360.5,515.9831460674158,360.5C513.7780898876405,360.5,513.7780898876405,357,511.5730337078652,357C509.3679775280899,357,509.3679775280899,362.25,507.1629213483146,362.25C504.95786516853934,362.25,504.95786516853934,367.5,502.75280898876406,367.5C500.5477528089888,367.5,500.5477528089888,371,498.3426966292135,371C496.1376404494382,371,496.1376404494382,369.25,493.9325842696629,369.25C491.72752808988764,369.25,491.72752808988764,374.5,489.52247191011236,374.5C487.3174157303371,374.5,487.3174157303371,372.75,485.11235955056173,372.75C482.9073033707865,372.75,482.9073033707865,378,480.7022471910113,378C478.497191011236,378,478.497191011236,369.25,476.2921348314607,369.25C474.08707865168543,369.25,474.08707865168543,379.75,471.88202247191015,379.75C469.67696629213486,379.75,469.67696629213486,386.75,467.4719101123596,386.75C465.2668539325843,386.75,465.2668539325843,369.25,463.061797752809,369.25C460.8567415730337,369.25,460.8567415730337,364,458.6516853932584,364C456.4466292134831,364,456.4466292134831,369.25,454.2415730337078,369.25C452.03651685393254,369.25,452.03651685393254,365.75,449.83146067415726,365.75C447.62640449438203,365.75,447.62640449438203,365.75,445.4213483146068,365.75C443.2162921348315,365.75,443.2162921348315,360.5,441.01123595505624,360.5C438.80617977528095,360.5,438.80617977528095,364,436.6011235955056,364C434.39606741573033,364,434.39606741573033,367.5,432.19101123595505,367.5C429.98595505617976,367.5,429.98595505617976,369.25,427.7808988764045,369.25C425.5758426966292,369.25,425.5758426966292,362.25,423.3707865168539,362.25C421.1657303370786,362.25,421.1657303370786,357,418.96067415730334,357C416.75561797752806,357,416.75561797752806,367.5,414.5505617977528,367.5C412.34550561797755,367.5,412.34550561797755,372.75,410.14044943820227,372.75C407.935393258427,372.75,407.935393258427,386.75,405.7303370786517,386.75C403.5252808988764,386.75,403.5252808988764,395.5,401.32022471910113,395.5C399.11516853932585,395.5,399.11516853932585,388.5,396.91011235955057,388.5C394.7050561797753,388.5,394.7050561797753,390.25,392.5,390.25C390.2949438202247,390.25,390.2949438202247,411.25,388.08988764044943,411.25C385.88483146067415,411.25,385.88483146067415,409.5,383.67977528089887,409.5C381.4747191011236,409.5,381.4747191011236,434,379.2696629213483,434C377.064606741573,434,377.064606741573,420,374.85955056179773,420C372.65449438202245,420,372.65449438202245,425.25,370.44943820224717,425.25C368.2443820224719,425.25,368.2443820224719,448,366.0393258426966,448C363.8342696629213,448,363.8342696629213,442.75,361.6292134831461,442.75C359.4241573033708,442.75,359.4241573033708,425.25,357.2191011235955,425.25C355.01404494382024,425.25,355.01404494382024,453.25,352.80898876404495,453.25C350.60393258426967,453.25,350.60393258426967,528.5,348.3988764044944,528.5C346.1938202247191,528.5,346.1938202247191,418.25,343.9887640449438,418.25C341.78370786516854,418.25,341.78370786516854,435.75,339.57865168539325,435.75C337.37359550561797,435.75,337.37359550561797,498.75,335.1685393258427,498.75C332.9634831460674,498.75,332.9634831460674,399,330.7584269662921,399C328.5533707865169,399,328.5533707865169,407.75,326.3483146067416,407.75C324.1432584269663,407.75,324.1432584269663,385,321.938202247191,385C319.7331460674157,385,319.7331460674157,344.75,317.5280898876404,344.75C315.32303370786514,344.75,315.32303370786514,329,313.11797752808985,329C310.9129213483146,329,310.9129213483146,320.25,308.70786516853934,320.25C306.50280898876406,320.25,306.50280898876406,316.75,304.2977528089888,316.75C302.0926966292135,316.75,302.0926966292135,315,299.8876404494382,315C297.6825842696629,315,297.6825842696629,311.5,295.47752808988764,311.5C293.27247191011236,311.5,293.27247191011236,309.75,291.0674157303371,309.75C288.8623595505618,309.75,288.8623595505618,309.75,286.6573033707865,309.75C284.4522471910112,309.75,284.4522471910112,311.5,282.24719101123594,311.5C280.04213483146066,311.5,280.04213483146066,311.5,277.8370786516854,311.5C275.6320224719101,311.5,275.6320224719101,306.25,273.42696629213486,306.25C271.2219101123596,306.25,271.2219101123596,306.25,269.0168539325843,306.25C266.81179775280896,306.25,266.81179775280896,306.25,264.6067415730337,306.25C262.4016853932584,306.25,262.4016853932584,304.5,260.1966292134831,304.5C257.9915730337078,304.5,257.9915730337078,304.5,255.7865168539326,304.5C253.5814606741573,304.5,253.5814606741573,301,251.37640449438203,301C249.17134831460675,301,249.17134831460675,304.5,246.96629213483146,304.5C244.76123595505618,304.5,244.76123595505618,301,242.55617977528087,301C240.3511235955056,301,240.3511235955056,297.5,238.14606741573036,297.5C235.94101123595507,297.5,235.94101123595507,294,233.7359550561798,294C231.53089887640448,294,231.53089887640448,297.5,229.3258426966292,297.5C227.1207865168539,297.5,227.1207865168539,297.5,224.91573033707863,297.5C222.71067415730337,297.5,222.71067415730337,297.5,220.50561797752812,297.5C218.30056179775283,297.5,218.30056179775283,299.25,216.09550561797752,299.25C213.89044943820224,299.25,213.89044943820224,297.5,211.68539325842696,297.5C209.48033707865167,297.5,209.48033707865167,297.5,207.2752808988764,297.5C205.07022471910113,297.5,205.07022471910113,299.25,202.86516853932585,299.25C200.66011235955057,299.25,200.66011235955057,297.5,198.45505617977528,297.5C196.25,297.5,196.25,297.5,194.04494382022472,297.5C191.83988764044943,297.5,191.83988764044943,297.5,189.63483146067415,297.5C187.42977528089887,297.5,187.42977528089887,295.75,185.22471910112358,295.75C183.0196629213483,295.75,183.0196629213483,297.5,180.81460674157304,297.5C178.60955056179776,297.5,178.60955056179776,297.5,176.40449438202248,297.5C174.1994382022472,297.5,174.1994382022472,294,171.9943820224719,294C169.78932584269663,294,169.78932584269663,294,167.58426966292134,294C165.3792134831461,294,165.3792134831461,294,163.1741573033708,294C160.96910112359552,294,160.96910112359552,295.75,158.7640449438202,295.75C156.55898876404495,295.75,156.55898876404495,297.5,154.35393258426967,297.5C152.1488764044944,297.5,152.1488764044944,294,149.9438202247191,294C147.73876404494382,294,147.73876404494382,295.75,145.53370786516854,295.75C143.32865168539325,295.75,143.32865168539325,297.5,141.12359550561797,297.5C138.9185393258427,297.5,138.9185393258427,297.5,136.71348314606743,297.5C134.50842696629212,297.5,134.50842696629212,297.5,132.30337078651684,297.5C130.09831460674155,297.5,130.09831460674155,297.5,127.8932584269663,297.5C125.68820224719101,297.5,125.68820224719101,297.5,123.48314606741573,297.5C121.27808988764045,297.5,121.27808988764045,297.5,119.07303370786518,297.5C116.86797752808988,297.5,116.86797752808988,295.75,114.6629213483146,295.75C112.45786516853933,295.75,112.45786516853933,297.5,110.25280898876406,297.5C108.04775280898878,297.5,108.04775280898878,297.5,105.84269662921348,297.5C103.63764044943821,297.5,103.63764044943821,299.25,101.43258426966293,299.25C99.22752808988764,299.25,99.22752808988764,302.75,97.02247191011236,302.75C94.81741573033707,302.75,94.81741573033707,301,92.61235955056179,301C90.40730337078651,301,90.40730337078651,299.25,88.20224719101124,299.25C85.99719101123596,299.25,85.99719101123596,297.5,83.79213483146067,297.5C81.58707865168539,297.5,81.58707865168539,301,79.3820224719101,301C77.17696629213484,301,77.17696629213484,299.25,74.97191011235955,299.25C72.76685393258427,299.25,72.76685393258427,301,70.56179775280899,301C68.3567415730337,301,68.3567415730337,301,66.15168539325842,301C63.94662921348314,301,63.94662921348314,299.25,61.741573033707866,299.25C59.53651685393258,299.25,59.53651685393258,301,57.3314606741573,301C55.126404494382015,301,55.126404494382015,297.5,52.92134831460674,297.5C50.71629213483146,297.5,50.71629213483146,299.25,48.51123595505618,299.25C46.306179775280896,299.25,46.306179775280896,301,44.10112359550562,301C41.896067415730336,301,41.896067415730336,299.25,39.69101123595505,299.25C37.485955056179776,299.25,37.485955056179776,299.25,35.28089887640449,299.25C33.07584269662921,299.25,33.07584269662921,299.25,30.870786516853933,299.25C28.66573033707865,299.25,28.66573033707865,297.5,26.46067415730337,297.5C24.25561797752809,297.5,24.25561797752809,297.5,22.05056179775281,297.5C19.84550561797753,297.5,19.84550561797753,297.5,17.640449438202246,297.5C15.435393258426966,297.5,15.435393258426966,301,13.230337078651685,301C11.025280898876403,301,11.025280898876403,297.5,8.820224719101123,297.5C6.615168539325842,297.5,6.615168539325842,299.25,4.410112359550562,299.25C2.205056179775281,299.25,2.205056179775281,299.25,0,299.25Z"><title>Javier Milei</title></path><path fill="#4a90e2" d="M0,259.75C2.205056179775281,259.75,2.205056179775281,259.75,4.410112359550562,259.75C6.615168539325842,259.75,6.615168539325842,261.5,8.820224719101123,261.5C11.025280898876403,261.5,11.025280898876403,258,13.230337078651685,258C15.435393258426966,258,15.435393258426966,261.5,17.640449438202246,261.5C19.84550561797753,261.5,19.84550561797753,261.5,22.05056179775281,261.5C24.25561797752809,261.5,24.25561797752809,261.5,26.46067415730337,261.5C28.66573033707865,261.5,28.66573033707865,259.75,30.870786516853933,259.75C33.07584269662921,259.75,33.07584269662921,259.75,35.28089887640449,259.75C37.485955056179776,259.75,37.485955056179776,259.75,39.69101123595505,259.75C41.896067415730336,259.75,41.896067415730336,258,44.10112359550562,258C46.306179775280896,258,46.306179775280896,259.75,48.51123595505618,259.75C50.71629213483146,259.75,50.71629213483146,261.5,52.92134831460674,261.5C55.126404494382015,261.5,55.126404494382015,258,57.3314606741573,258C59.53651685393258,258,59.53651685393258,259.75,61.741573033707866,259.75C63.94662921348314,259.75,63.94662921348314,258,66.15168539325842,258C68.3567415730337,258,68.3567415730337,258,70.56179775280899,258C72.76685393258427,258,72.76685393258427,259.75,74.97191011235955,259.75C77.17696629213484,259.75,77.17696629213484,258,79.3820224719101,258C81.58707865168539,258,81.58707865168539,261.5,83.79213483146067,261.5C85.99719101123596,261.5,85.99719101123596,259.75,88.20224719101124,259.75C90.40730337078651,259.75,90.40730337078651,258,92.61235955056179,258C94.81741573033707,258,94.81741573033707,256.25,97.02247191011236,256.25C99.22752808988764,256.25,99.22752808988764,259.75,101.43258426966293,259.75C103.63764044943821,259.75,103.63764044943821,261.5,105.84269662921348,261.5C108.04775280898878,261.5,108.04775280898878,261.5,110.25280898876406,261.5C112.45786516853933,261.5,112.45786516853933,263.25,114.6629213483146,263.25C116.86797752808988,263.25,116.86797752808988,261.5,119.07303370786518,261.5C121.27808988764045,261.5,121.27808988764045,261.5,123.48314606741573,261.5C125.68820224719101,261.5,125.68820224719101,261.5,127.8932584269663,261.5C130.09831460674155,261.5,130.09831460674155,261.5,132.30337078651684,261.5C134.50842696629212,261.5,134.50842696629212,261.5,136.71348314606743,261.5C138.9185393258427,261.5,138.9185393258427,261.5,141.12359550561797,261.5C143.32865168539325,261.5,143.32865168539325,263.25,145.53370786516854,263.25C147.73876404494382,263.25,147.73876404494382,265,149.9438202247191,265C152.1488764044944,265,152.1488764044944,261.5,154.35393258426967,261.5C156.55898876404495,261.5,156.55898876404495,263.25,158.7640449438202,263.25C160.96910112359552,263.25,160.96910112359552,265,163.1741573033708,265C165.3792134831461,265,165.3792134831461,265,167.58426966292134,265C169.78932584269663,265,169.78932584269663,265,171.9943820224719,265C174.1994382022472,265,174.1994382022472,261.5,176.40449438202248,261.5C178.60955056179776,261.5,178.60955056179776,261.5,180.81460674157304,261.5C183.0196629213483,261.5,183.0196629213483,263.25,185.22471910112358,263.25C187.42977528089887,263.25,187.42977528089887,261.5,189.63483146067415,261.5C191.83988764044943,261.5,191.83988764044943,261.5,194.04494382022472,261.5C196.25,261.5,196.25,261.5,198.45505617977528,261.5C200.66011235955057,261.5,200.66011235955057,259.75,202.86516853932585,259.75C205.07022471910113,259.75,205.07022471910113,261.5,207.2752808988764,261.5C209.48033707865167,261.5,209.48033707865167,261.5,211.68539325842696,261.5C213.89044943820224,261.5,213.89044943820224,259.75,216.09550561797752,259.75C218.30056179775283,259.75,218.30056179775283,261.5,220.50561797752812,261.5C222.71067415730337,261.5,222.71067415730337,261.5,224.91573033707863,261.5C227.1207865168539,261.5,227.1207865168539,261.5,229.3258426966292,261.5C231.53089887640448,261.5,231.53089887640448,265,233.7359550561798,265C235.94101123595507,265,235.94101123595507,261.5,238.14606741573036,261.5C240.3511235955056,261.5,240.3511235955056,258,242.55617977528087,258C244.76123595505618,258,244.76123595505618,254.50000000000003,246.96629213483146,254.50000000000003C249.17134831460675,254.50000000000003,249.17134831460675,258,251.37640449438203,258C253.5814606741573,258,253.5814606741573,254.50000000000003,255.7865168539326,254.50000000000003C257.9915730337078,254.50000000000003,257.9915730337078,254.50000000000003,260.1966292134831,254.50000000000003C262.4016853932584,254.50000000000003,262.4016853932584,252.75,264.6067415730337,252.75C266.81179775280896,252.75,266.81179775280896,252.75,269.0168539325843,252.75C271.2219101123596,252.75,271.2219101123596,252.75,273.42696629213486,252.75C275.6320224719101,252.75,275.6320224719101,247.5,277.8370786516854,247.5C280.04213483146066,247.5,280.04213483146066,247.5,282.24719101123594,247.5C284.4522471910112,247.5,284.4522471910112,249.25,286.6573033707865,249.25C288.8623595505618,249.25,288.8623595505618,249.25,291.0674157303371,249.25C293.27247191011236,249.25,293.27247191011236,247.5,295.47752808988764,247.5C297.6825842696629,247.5,297.6825842696629,244,299.8876404494382,244C302.0926966292135,244,302.0926966292135,242.24999999999997,304.2977528089888,242.24999999999997C306.50280898876406,242.24999999999997,306.50280898876406,238.75,308.70786516853934,238.75C310.9129213483146,238.75,310.9129213483146,230,313.11797752808985,230C315.32303370786514,230,315.32303370786514,214.25,317.5280898876404,214.25C319.7331460674157,214.25,319.7331460674157,174,321.938202247191,174C324.1432584269663,174,324.1432584269663,151.25,326.3483146067416,151.25C328.5533707865169,151.25,328.5533707865169,160,330.7584269662921,160C332.9634831460674,160,332.9634831460674,60.25,335.1685393258427,60.25C337.37359550561797,60.25,337.37359550561797,123.25000000000003,339.57865168539325,123.25000000000003C341.78370786516854,123.25000000000003,341.78370786516854,140.75000000000003,343.9887640449438,140.75000000000003C346.1938202247191,140.75000000000003,346.1938202247191,30.500000000000014,348.3988764044944,30.500000000000014C350.60393258426967,30.500000000000014,350.60393258426967,105.75000000000003,352.80898876404495,105.75000000000003C355.01404494382024,105.75000000000003,355.01404494382024,133.75,357.2191011235955,133.75C359.4241573033708,133.75,359.4241573033708,116.24999999999999,361.6292134831461,116.24999999999999C363.8342696629213,116.24999999999999,363.8342696629213,110.99999999999997,366.0393258426966,110.99999999999997C368.2443820224719,110.99999999999997,368.2443820224719,133.75,370.44943820224717,133.75C372.65449438202245,133.75,372.65449438202245,139,374.85955056179773,139C377.064606741573,139,377.064606741573,124.99999999999999,379.2696629213483,124.99999999999999C381.4747191011236,124.99999999999999,381.4747191011236,149.50000000000003,383.67977528089887,149.50000000000003C385.88483146067415,149.50000000000003,385.88483146067415,147.75,388.08988764044943,147.75C390.2949438202247,147.75,390.2949438202247,168.75,392.5,168.75C394.7050561797753,168.75,394.7050561797753,170.5,396.91011235955057,170.5C399.11516853932585,170.5,399.11516853932585,163.49999999999997,401.32022471910113,163.49999999999997C403.5252808988764,163.49999999999997,403.5252808988764,172.24999999999997,405.7303370786517,172.24999999999997C407.935393258427,172.24999999999997,407.935393258427,186.25,410.14044943820227,186.25C412.34550561797755,186.25,412.34550561797755,191.5,414.5505617977528,191.5C416.75561797752806,191.5,416.75561797752806,202.00000000000003,418.96067415730334,202.00000000000003C421.1657303370786,202.00000000000003,421.1657303370786,196.75,423.3707865168539,196.75C425.5758426966292,196.75,425.5758426966292,189.74999999999997,427.7808988764045,189.74999999999997C429.98595505617976,189.74999999999997,429.98595505617976,191.5,432.19101123595505,191.5C434.39606741573033,191.5,434.39606741573033,195,436.6011235955056,195C438.80617977528095,195,438.80617977528095,198.49999999999997,441.01123595505624,198.49999999999997C443.2162921348315,198.49999999999997,443.2162921348315,193.25000000000003,445.4213483146068,193.25000000000003C447.62640449438203,193.25000000000003,447.62640449438203,193.25000000000003,449.83146067415726,193.25000000000003C452.03651685393254,193.25000000000003,452.03651685393254,189.74999999999997,454.2415730337078,189.74999999999997C456.4466292134831,189.74999999999997,456.4466292134831,195,458.6516853932584,195C460.8567415730337,195,460.8567415730337,189.74999999999997,463.061797752809,189.74999999999997C465.2668539325843,189.74999999999997,465.2668539325843,172.24999999999997,467.4719101123596,172.24999999999997C469.67696629213486,172.24999999999997,469.67696629213486,179.25,471.88202247191015,179.25C474.08707865168543,179.25,474.08707865168543,189.74999999999997,476.2921348314607,189.74999999999997C478.497191011236,189.74999999999997,478.497191011236,180.99999999999997,480.7022471910113,180.99999999999997C482.9073033707865,180.99999999999997,482.9073033707865,186.25,485.11235955056173,186.25C487.3174157303371,186.25,487.3174157303371,184.50000000000003,489.52247191011236,184.50000000000003C491.72752808988764,184.50000000000003,491.72752808988764,189.74999999999997,493.9325842696629,189.74999999999997C496.1376404494382,189.74999999999997,496.1376404494382,188,498.3426966292135,188C500.5477528089888,188,500.5477528089888,191.5,502.75280898876406,191.5C504.95786516853934,191.5,504.95786516853934,196.75,507.1629213483146,196.75C509.3679775280899,196.75,509.3679775280899,202.00000000000003,511.5730337078652,202.00000000000003C513.7780898876405,202.00000000000003,513.7780898876405,198.49999999999997,515.9831460674158,198.49999999999997C518.1882022471909,198.49999999999997,518.1882022471909,215.99999999999997,520.3932584269662,215.99999999999997C522.5983146067415,215.99999999999997,522.5983146067415,207.24999999999997,524.8033707865168,207.24999999999997C527.0084269662921,207.24999999999997,527.0084269662921,210.75000000000003,529.2134831460673,210.75000000000003C531.4185393258426,210.75000000000003,531.4185393258426,200.25,533.623595505618,200.25C535.8286516853933,200.25,535.8286516853933,209,538.0337078651686,209C540.2387640449439,209,540.2387640449439,210.75000000000003,542.4438202247192,210.75000000000003C544.6488764044944,210.75000000000003,544.6488764044944,221.25,546.8539325842697,221.25C549.058988764045,221.25,549.058988764045,202.00000000000003,551.2640449438203,202.00000000000003C553.4691011235955,202.00000000000003,553.4691011235955,212.5,555.6741573033707,212.5C557.879213483146,212.5,557.879213483146,210.75000000000003,560.0842696629213,210.75000000000003C562.2893258426966,210.75000000000003,562.2893258426966,219.50000000000003,564.4943820224719,219.50000000000003C566.6994382022472,219.50000000000003,566.6994382022472,221.25,568.9044943820224,221.25C571.1095505617977,221.25,571.1095505617977,219.50000000000003,573.314606741573,219.50000000000003C575.5196629213483,219.50000000000003,575.5196629213483,230,577.7247191011236,230C579.9297752808989,230,579.9297752808989,223,582.1348314606741,223C584.3398876404494,223,584.3398876404494,233.49999999999997,586.5449438202247,233.49999999999997C588.75,233.49999999999997,588.75,223,590.9550561797753,223C593.1601123595506,223,593.1601123595506,224.74999999999997,595.3651685393259,224.74999999999997C597.5702247191011,224.74999999999997,597.5702247191011,230,599.7752808988764,230C601.9803370786517,230,601.9803370786517,228.25000000000003,604.185393258427,228.25000000000003C606.3904494382023,228.25000000000003,606.3904494382023,230,608.5955056179776,230C610.8005617977528,230,610.8005617977528,228.25000000000003,613.0056179775281,228.25000000000003C615.2106741573034,228.25000000000003,615.2106741573034,228.25000000000003,617.4157303370787,228.25000000000003C619.620786516854,228.25000000000003,619.620786516854,228.25000000000003,621.8258426966293,228.25000000000003C624.0308988764045,228.25000000000003,624.0308988764045,228.25000000000003,626.2359550561797,228.25000000000003C628.441011235955,228.25000000000003,628.441011235955,226.5,630.6460674157303,226.5C632.8511235955056,226.5,632.8511235955056,223,635.0561797752808,223C637.2612359550561,223,637.2612359550561,221.25,639.4662921348314,221.25C641.6713483146067,221.25,641.6713483146067,228.25000000000003,643.876404494382,228.25000000000003C646.0814606741574,228.25000000000003,646.0814606741574,219.50000000000003,648.2865168539327,219.50000000000003C650.4915730337079,219.50000000000003,650.4915730337079,215.99999999999997,652.6966292134832,215.99999999999997C654.9016853932585,215.99999999999997,654.9016853932585,215.99999999999997,657.1067415730338,215.99999999999997C659.3117977528091,215.99999999999997,659.3117977528091,217.75,661.5168539325842,217.75C663.7219101123595,217.75,663.7219101123595,219.50000000000003,665.9269662921348,219.50000000000003C668.1320224719101,219.50000000000003,668.1320224719101,217.75,670.3370786516854,217.75C672.5421348314607,217.75,672.5421348314607,221.25,674.7471910112359,221.25C676.9522471910112,221.25,676.9522471910112,215.99999999999997,679.1573033707865,215.99999999999997C681.3623595505618,215.99999999999997,681.3623595505618,217.75,683.5674157303371,217.75C685.7724719101124,217.75,685.7724719101124,219.50000000000003,687.9775280898876,219.50000000000003C690.1825842696629,219.50000000000003,690.1825842696629,221.25,692.3876404494382,221.25C694.5926966292135,221.25,694.5926966292135,223,696.7977528089888,223C699.0028089887641,223,699.0028089887641,224.74999999999997,701.2078651685393,224.74999999999997C703.4129213483146,224.74999999999997,703.4129213483146,224.74999999999997,705.6179775280899,224.74999999999997C707.8230337078652,224.74999999999997,707.8230337078652,226.5,710.0280898876405,226.5C712.2331460674158,226.5,712.2331460674158,226.5,714.438202247191,226.5C716.6432584269663,226.5,716.6432584269663,224.74999999999997,718.8483146067416,224.74999999999997C721.0533707865169,224.74999999999997,721.0533707865169,228.25000000000003,723.2584269662922,228.25000000000003C725.4634831460675,228.25000000000003,725.4634831460675,224.74999999999997,727.6685393258427,224.74999999999997C729.8735955056179,224.74999999999997,729.8735955056179,224.74999999999997,732.0786516853932,224.74999999999997C734.2837078651685,224.74999999999997,734.2837078651685,221.25,736.4887640449438,221.25C738.693820224719,221.25,738.693820224719,226.5,740.8988764044943,226.5C743.1039325842696,226.5,743.1039325842696,224.74999999999997,745.3089887640449,224.74999999999997C747.5140449438202,224.74999999999997,747.5140449438202,224.74999999999997,749.7191011235955,224.74999999999997C751.9241573033707,224.74999999999997,751.9241573033707,228.25000000000003,754.129213483146,228.25000000000003C756.3342696629213,228.25000000000003,756.3342696629213,226.5,758.5393258426966,226.5C760.7443820224719,226.5,760.7443820224719,224.74999999999997,762.9494382022473,224.74999999999997C765.1544943820224,224.74999999999997,765.1544943820224,228.25000000000003,767.3595505617977,228.25000000000003C769.564606741573,228.25000000000003,769.564606741573,228.25000000000003,771.7696629213483,228.25000000000003C773.9747191011236,228.25000000000003,773.9747191011236,228.25000000000003,776.1797752808989,228.25000000000003C778.3848314606741,228.25000000000003,778.3848314606741,230,780.5898876404494,230C782.7949438202247,230,782.7949438202247,230,785,230L785,258C782.7949438202247,258,782.7949438202247,258,780.5898876404494,258C778.3848314606741,258,778.3848314606741,256.25,776.1797752808989,256.25C773.9747191011236,256.25,773.9747191011236,256.25,771.7696629213483,256.25C769.564606741573,256.25,769.564606741573,259.75,767.3595505617977,259.75C765.1544943820224,259.75,765.1544943820224,259.75,762.9494382022473,259.75C760.7443820224719,259.75,760.7443820224719,258,758.5393258426966,258C756.3342696629213,258,756.3342696629213,259.75,754.129213483146,259.75C751.9241573033707,259.75,751.9241573033707,256.25,749.7191011235955,256.25C747.5140449438202,256.25,747.5140449438202,259.75,745.3089887640449,259.75C743.1039325842696,259.75,743.1039325842696,258,740.8988764044943,258C738.693820224719,258,738.693820224719,252.75,736.4887640449438,252.75C734.2837078651685,252.75,734.2837078651685,256.25,732.0786516853932,256.25C729.8735955056179,256.25,729.8735955056179,256.25,727.6685393258427,256.25C725.4634831460675,256.25,725.4634831460675,259.75,723.2584269662922,259.75C721.0533707865169,259.75,721.0533707865169,259.75,718.8483146067416,259.75C716.6432584269663,259.75,716.6432584269663,261.5,714.438202247191,261.5C712.2331460674158,261.5,712.2331460674158,258,710.0280898876405,258C707.8230337078652,258,707.8230337078652,259.75,705.6179775280899,259.75C703.4129213483146,259.75,703.4129213483146,259.75,701.2078651685393,259.75C699.0028089887641,259.75,699.0028089887641,258,696.7977528089888,258C694.5926966292135,258,694.5926966292135,259.75,692.3876404494382,259.75C690.1825842696629,259.75,690.1825842696629,254.50000000000003,687.9775280898876,254.50000000000003C685.7724719101124,254.50000000000003,685.7724719101124,256.25,683.5674157303371,256.25C681.3623595505618,256.25,681.3623595505618,254.50000000000003,679.1573033707865,254.50000000000003C676.9522471910112,254.50000000000003,676.9522471910112,259.75,674.7471910112359,259.75C672.5421348314607,259.75,672.5421348314607,256.25,670.3370786516854,256.25C668.1320224719101,256.25,668.1320224719101,258,665.9269662921348,258C663.7219101123595,258,663.7219101123595,256.25,661.5168539325842,256.25C659.3117977528091,256.25,659.3117977528091,258,657.1067415730338,258C654.9016853932585,258,654.9016853932585,258,652.6966292134832,258C650.4915730337079,258,650.4915730337079,258,648.2865168539327,258C646.0814606741574,258,646.0814606741574,263.25,643.876404494382,263.25C641.6713483146067,263.25,641.6713483146067,259.75,639.4662921348314,259.75C637.2612359550561,259.75,637.2612359550561,261.5,635.0561797752808,261.5C632.8511235955056,261.5,632.8511235955056,261.5,630.6460674157303,261.5C628.441011235955,261.5,628.441011235955,263.25,626.2359550561797,263.25C624.0308988764045,263.25,624.0308988764045,259.75,621.8258426966293,259.75C619.620786516854,259.75,619.620786516854,266.75,617.4157303370787,266.75C615.2106741573034,266.75,615.2106741573034,266.75,613.0056179775281,266.75C610.8005617977528,266.75,610.8005617977528,265,608.5955056179776,265C606.3904494382023,265,606.3904494382023,263.25,604.185393258427,263.25C601.9803370786517,263.25,601.9803370786517,261.5,599.7752808988764,261.5C597.5702247191011,261.5,597.5702247191011,259.75,595.3651685393259,259.75C593.1601123595506,259.75,593.1601123595506,265,590.9550561797753,265C588.75,265,588.75,265,586.5449438202247,265C584.3398876404494,265,584.3398876404494,261.5,582.1348314606741,261.5C579.9297752808989,261.5,579.9297752808989,258,577.7247191011236,258C575.5196629213483,258,575.5196629213483,258,573.314606741573,258C571.1095505617977,258,571.1095505617977,252.75,568.9044943820224,252.75C566.6994382022472,252.75,566.6994382022472,254.50000000000003,564.4943820224719,254.50000000000003C562.2893258426966,254.50000000000003,562.2893258426966,259.75,560.0842696629213,259.75C557.879213483146,259.75,557.879213483146,254.50000000000003,555.6741573033707,254.50000000000003C553.4691011235955,254.50000000000003,553.4691011235955,250.99999999999997,551.2640449438203,250.99999999999997C549.058988764045,250.99999999999997,549.058988764045,252.75,546.8539325842697,252.75C544.6488764044944,252.75,544.6488764044944,252.75,542.4438202247192,252.75C540.2387640449439,252.75,540.2387640449439,258,538.0337078651686,258C535.8286516853933,258,535.8286516853933,242.24999999999997,533.623595505618,242.24999999999997C531.4185393258426,242.24999999999997,531.4185393258426,252.75,529.2134831460673,252.75C527.0084269662921,252.75,527.0084269662921,245.75000000000003,524.8033707865168,245.75000000000003C522.5983146067415,245.75000000000003,522.5983146067415,250.99999999999997,520.3932584269662,250.99999999999997C518.1882022471909,250.99999999999997,518.1882022471909,240.5,515.9831460674158,240.5C513.7780898876405,240.5,513.7780898876405,244,511.5730337078652,244C509.3679775280899,244,509.3679775280899,245.75000000000003,507.1629213483146,245.75000000000003C504.95786516853934,245.75000000000003,504.95786516853934,244,502.75280898876406,244C500.5477528089888,244,500.5477528089888,244,498.3426966292135,244C496.1376404494382,244,496.1376404494382,245.75000000000003,493.9325842696629,245.75000000000003C491.72752808988764,245.75000000000003,491.72752808988764,244,489.52247191011236,244C487.3174157303371,244,487.3174157303371,235.25,485.11235955056173,235.25C482.9073033707865,235.25,482.9073033707865,237.00000000000003,480.7022471910113,237.00000000000003C478.497191011236,237.00000000000003,478.497191011236,245.75000000000003,476.2921348314607,245.75000000000003C474.08707865168543,245.75000000000003,474.08707865168543,235.25,471.88202247191015,235.25C469.67696629213486,235.25,469.67696629213486,228.25000000000003,467.4719101123596,228.25000000000003C465.2668539325843,228.25000000000003,465.2668539325843,242.24999999999997,463.061797752809,242.24999999999997C460.8567415730337,242.24999999999997,460.8567415730337,258,458.6516853932584,258C456.4466292134831,258,456.4466292134831,256.25,454.2415730337078,256.25C452.03651685393254,256.25,452.03651685393254,259.75,449.83146067415726,259.75C447.62640449438203,259.75,447.62640449438203,259.75,445.4213483146068,259.75C443.2162921348315,259.75,443.2162921348315,268.5,441.01123595505624,268.5C438.80617977528095,268.5,438.80617977528095,265,436.6011235955056,265C434.39606741573033,265,434.39606741573033,268.5,432.19101123595505,268.5C429.98595505617976,268.5,429.98595505617976,266.75,427.7808988764045,266.75C425.5758426966292,266.75,425.5758426966292,266.75,423.3707865168539,266.75C421.1657303370786,266.75,421.1657303370786,268.5,418.96067415730334,268.5C416.75561797752806,268.5,416.75561797752806,272,414.5505617977528,272C412.34550561797755,272,412.34550561797755,266.75,410.14044943820227,266.75C407.935393258427,266.75,407.935393258427,266.75,405.7303370786517,266.75C403.5252808988764,266.75,403.5252808988764,261.5,401.32022471910113,261.5C399.11516853932585,261.5,399.11516853932585,261.5,396.91011235955057,261.5C394.7050561797753,261.5,394.7050561797753,273.75,392.5,273.75C390.2949438202247,273.75,390.2949438202247,273.75,388.08988764044943,273.75C385.88483146067415,273.75,385.88483146067415,268.5,383.67977528089887,268.5C381.4747191011236,268.5,381.4747191011236,258,379.2696629213483,258C377.064606741573,258,377.064606741573,275.5,374.85955056179773,275.5C372.65449438202245,275.5,372.65449438202245,277.25,370.44943820224717,277.25C368.2443820224719,277.25,368.2443820224719,240.5,366.0393258426966,240.5C363.8342696629213,240.5,363.8342696629213,259.75,361.6292134831461,259.75C359.4241573033708,259.75,359.4241573033708,280.75,357.2191011235955,280.75C355.01404494382024,280.75,355.01404494382024,284.25,352.80898876404495,284.25C350.60393258426967,284.25,350.60393258426967,177.5,348.3988764044944,177.5C346.1938202247191,177.5,346.1938202247191,270.25,343.9887640449438,270.25C341.78370786516854,270.25,341.78370786516854,252.75,339.57865168539325,252.75C337.37359550561797,252.75,337.37359550561797,256.25,335.1685393258427,256.25C332.9634831460674,256.25,332.9634831460674,279,330.7584269662921,279C328.5533707865169,279,328.5533707865169,235.25,326.3483146067416,235.25C324.1432584269663,235.25,324.1432584269663,272,321.938202247191,272C319.7331460674157,272,319.7331460674157,280.75,317.5280898876404,280.75C315.32303370786514,280.75,315.32303370786514,279,313.11797752808985,279C310.9129213483146,279,310.9129213483146,273.75,308.70786516853934,273.75C306.50280898876406,273.75,306.50280898876406,273.75,304.2977528089888,273.75C302.0926966292135,273.75,302.0926966292135,272,299.8876404494382,272C297.6825842696629,272,297.6825842696629,275.5,295.47752808988764,275.5C293.27247191011236,275.5,293.27247191011236,273.75,291.0674157303371,273.75C288.8623595505618,273.75,288.8623595505618,273.75,286.6573033707865,273.75C284.4522471910112,273.75,284.4522471910112,275.5,282.24719101123594,275.5C280.04213483146066,275.5,280.04213483146066,275.5,277.8370786516854,275.5C275.6320224719101,275.5,275.6320224719101,273.75,273.42696629213486,273.75C271.2219101123596,273.75,271.2219101123596,273.75,269.0168539325843,273.75C266.81179775280896,273.75,266.81179775280896,273.75,264.6067415730337,273.75C262.4016853932584,273.75,262.4016853932584,275.5,260.1966292134831,275.5C257.9915730337078,275.5,257.9915730337078,275.5,255.7865168539326,275.5C253.5814606741573,275.5,253.5814606741573,275.5,251.37640449438203,275.5C249.17134831460675,275.5,249.17134831460675,275.5,246.96629213483146,275.5C244.76123595505618,275.5,244.76123595505618,275.5,242.55617977528087,275.5C240.3511235955056,275.5,240.3511235955056,275.5,238.14606741573036,275.5C235.94101123595507,275.5,235.94101123595507,275.5,233.7359550561798,275.5C231.53089887640448,275.5,231.53089887640448,275.5,229.3258426966292,275.5C227.1207865168539,275.5,227.1207865168539,275.5,224.91573033707863,275.5C222.71067415730337,275.5,222.71067415730337,275.5,220.50561797752812,275.5C218.30056179775283,275.5,218.30056179775283,277.25,216.09550561797752,277.25C213.89044943820224,277.25,213.89044943820224,275.5,211.68539325842696,275.5C209.48033707865167,275.5,209.48033707865167,275.5,207.2752808988764,275.5C205.07022471910113,275.5,205.07022471910113,277.25,202.86516853932585,277.25C200.66011235955057,277.25,200.66011235955057,275.5,198.45505617977528,275.5C196.25,275.5,196.25,275.5,194.04494382022472,275.5C191.83988764044943,275.5,191.83988764044943,275.5,189.63483146067415,275.5C187.42977528089887,275.5,187.42977528089887,277.25,185.22471910112358,277.25C183.0196629213483,277.25,183.0196629213483,275.5,180.81460674157304,275.5C178.60955056179776,275.5,178.60955056179776,275.5,176.40449438202248,275.5C174.1994382022472,275.5,174.1994382022472,275.5,171.9943820224719,275.5C169.78932584269663,275.5,169.78932584269663,275.5,167.58426966292134,275.5C165.3792134831461,275.5,165.3792134831461,275.5,163.1741573033708,275.5C160.96910112359552,275.5,160.96910112359552,273.75,158.7640449438202,273.75C156.55898876404495,273.75,156.55898876404495,275.5,154.35393258426967,275.5C152.1488764044944,275.5,152.1488764044944,275.5,149.9438202247191,275.5C147.73876404494382,275.5,147.73876404494382,277.25,145.53370786516854,277.25C143.32865168539325,277.25,143.32865168539325,275.5,141.12359550561797,275.5C138.9185393258427,275.5,138.9185393258427,275.5,136.71348314606743,275.5C134.50842696629212,275.5,134.50842696629212,275.5,132.30337078651684,275.5C130.09831460674155,275.5,130.09831460674155,275.5,127.8932584269663,275.5C125.68820224719101,275.5,125.68820224719101,275.5,123.48314606741573,275.5C121.27808988764045,275.5,121.27808988764045,275.5,119.07303370786518,275.5C116.86797752808988,275.5,116.86797752808988,277.25,114.6629213483146,277.25C112.45786516853933,277.25,112.45786516853933,275.5,110.25280898876406,275.5C108.04775280898878,275.5,108.04775280898878,275.5,105.84269662921348,275.5C103.63764044943821,275.5,103.63764044943821,273.75,101.43258426966293,273.75C99.22752808988764,273.75,99.22752808988764,273.75,97.02247191011236,273.75C94.81741573033707,273.75,94.81741573033707,275.5,92.61235955056179,275.5C90.40730337078651,275.5,90.40730337078651,273.75,88.20224719101124,273.75C85.99719101123596,273.75,85.99719101123596,275.5,83.79213483146067,275.5C81.58707865168539,275.5,81.58707865168539,275.5,79.3820224719101,275.5C77.17696629213484,275.5,77.17696629213484,273.75,74.97191011235955,273.75C72.76685393258427,273.75,72.76685393258427,272,70.56179775280899,272C68.3567415730337,272,68.3567415730337,272,66.15168539325842,272C63.94662921348314,272,63.94662921348314,273.75,61.741573033707866,273.75C59.53651685393258,273.75,59.53651685393258,275.5,57.3314606741573,275.5C55.126404494382015,275.5,55.126404494382015,275.5,52.92134831460674,275.5C50.71629213483146,275.5,50.71629213483146,273.75,48.51123595505618,273.75C46.306179775280896,273.75,46.306179775280896,275.5,44.10112359550562,275.5C41.896067415730336,275.5,41.896067415730336,277.25,39.69101123595505,277.25C37.485955056179776,277.25,37.485955056179776,273.75,35.28089887640449,273.75C33.07584269662921,273.75,33.07584269662921,273.75,30.870786516853933,273.75C28.66573033707865,273.75,28.66573033707865,275.5,26.46067415730337,275.5C24.25561797752809,275.5,24.25561797752809,275.5,22.05056179775281,275.5C19.84550561797753,275.5,19.84550561797753,275.5,17.640449438202246,275.5C15.435393258426966,275.5,15.435393258426966,275.5,13.230337078651685,275.5C11.025280898876403,275.5,11.025280898876403,275.5,8.820224719101123,275.5C6.615168539325842,275.5,6.615168539325842,273.75,4.410112359550562,273.75C2.205056179775281,273.75,2.205056179775281,273.75,0,273.75Z"><title>Sergio Massa</title></path></g><g id="xAxis" transform="translate(0,560)" fill="none" font-size="10" font-family="sans-serif" text-anchor="middle"><path class="domain" stroke="currentColor" d="M0,0H785"/><g class="tick" opacity="1" transform="translate(15.435393258426966,0)"><line stroke="currentColor" y2="6"/><text fill="currentColor" y="9" dy="0.71em">12 PM</text></g><g class="tick" opacity="1" transform="translate(114.6629213483146,0)"><line stroke="currentColor" y2="6"/><text fill="currentColor" y="9" dy="0.71em">03 PM</text></g><g class="tick" opacity="1" transform="translate(213.89044943820224,0)"><line stroke="currentColor" y2="6"/><text fill="currentColor" y="9" dy="0.71em">06 PM</text></g><g class="tick" opacity="1" transform="translate(313.11797752808985,0)"><line stroke="currentColor" y2="6"/><text fill="currentColor" y="9" dy="0.71em">09 PM</text></g><g class="tick" opacity="1" transform="translate(412.34550561797755,0)"><line stroke="currentColor" y2="6"/><text fill="currentColor" y="9" dy="0.71em">Mon 13</text></g><g class="tick" opacity="1" transform="translate(511.5730337078652,0)"><line stroke="currentColor" y2="6"/><text fill="currentColor" y="9" dy="0.71em">03 AM</text></g><g class="tick" opacity="1" transform="translate(610.8005617977527,0)"><line stroke="currentColor" y2="6"/><text fill="currentColor" y="9" dy="0.71em">06 AM</text></g><g class="tick" opacity="1" transform="translate(710.0280898876405,0)"><line stroke="currentColor" y2="6"/><text fill="currentColor" y="9" dy="0.71em">09 AM</text></g></g><text y="556" x="785" text-anchor="end" style="font-family: Arial, sans-serif; font-size: 12px; fill: rgb(123, 123, 123); font-weight: bold;">Time</text><text x="4" text-anchor="start" dominant-baseline="hanging" style="font-family: Arial, sans-serif; font-size: 12px; fill: rgb(123, 123, 123); font-weight: bold;">value</text><g id="labels"><text x="348.3988764044944" y="353.5" text-anchor="middle" alignment-baseline="middle" style="font-family: Arial, sans-serif; font-size: 10px; fill: black; font-weight: bold; stroke-width: 2px; paint-order: stroke; stroke: white; stroke-linecap: round; stroke-linejoin: round;">Javier Milei</text><text x="335.1685393258427" y="158.25000000000003" text-anchor="middle" alignment-baseline="middle" style="font-family: Arial, sans-serif; font-size: 10px; fill: black; font-weight: bold; stroke-width: 2px; paint-order: stroke; stroke: white; stroke-linecap: round; stroke-linejoin: round;">Sergio Massa</text></g></g></g></g></svg>